{
	"asset":{
		"generator":"Khronos glTF Blender I/O v4.0.43",
		"version":"2.0"
	},
	"scene":0,
	"scenes":[
		{
			"name":"Scene",
			"nodes":[
				0
			]
		}
	],
	"nodes":[
		{
			"mesh":0,
			"name":"Icosphere.012",
			"rotation":[
				-0.22960858047008514,
				-0.12419915944337845,
				-0.029555367305874825,
				0.9648735523223877
			],
			"scale":[
				0.5815638303756714,
				0.5815638303756714,
				0.5815638303756714
			],
			"translation":[
				0.17141938209533691,
				0.3754901587963104,
				3.7467377185821533
			]
		}
	],
	"meshes":[
		{
			"name":"Icosphere.021",
			"primitives":[
				{
					"attributes":{
						"POSITION":0,
						"NORMAL":1,
						"TEXCOORD_0":2
					},
					"indices":3
				}
			]
		}
	],
	"accessors":[
		{
			"bufferView":0,
			"componentType":5126,
			"count":1274,
			"max":[
				0.923721432685852,
				7.719900131225586,
				0.8506399989128113
			],
			"min":[
				-4.996974468231201,
				-1.0000033378601074,
				-13.729439735412598
			],
			"type":"VEC3"
		},
		{
			"bufferView":1,
			"componentType":5126,
			"count":1274,
			"type":"VEC3"
		},
		{
			"bufferView":2,
			"componentType":5126,
			"count":1274,
			"type":"VEC2"
		},
		{
			"bufferView":3,
			"componentType":5123,
			"count":2076,
			"type":"SCALAR"
		}
	],
	"bufferViews":[
		{
			"buffer":0,
			"byteLength":15288,
			"byteOffset":0,
			"target":34962
		},
		{
			"buffer":0,
			"byteLength":15288,
			"byteOffset":15288,
			"target":34962
		},
		{
			"buffer":0,
			"byteLength":10192,
			"byteOffset":30576,
			"target":34962
		},
		{
			"buffer":0,
			"byteLength":4152,
			"byteOffset":40768,
			"target":34963
		}
	],
	"buffers":[
		{
			"byteLength":44920,
			"uri":"Cloud2.bin"
		}
	]
}
