{
	"asset":{
		"generator":"Khronos glTF Blender I/O v4.0.43",
		"version":"2.0"
	},
	"scene":0,
	"scenes":[
		{
			"name":"Scene",
			"nodes":[
				0
			]
		}
	],
	"nodes":[
		{
			"mesh":0,
			"name":"Icosphere.093",
			"rotation":[
				0.3153250217437744,
				0.27112898230552673,
				0.00870539154857397,
				0.909386396408081
			],
			"scale":[
				1.1107492446899414,
				1.1107491254806519,
				1.1107492446899414
			],
			"translation":[
				-2.5176844596862793,
				0.9973200559616089,
				-2.564485788345337
			]
		}
	],
	"meshes":[
		{
			"name":"Icosphere.117",
			"primitives":[
				{
					"attributes":{
						"POSITION":0,
						"NORMAL":1,
						"TEXCOORD_0":2
					},
					"indices":3
				}
			]
		}
	],
	"accessors":[
		{
			"bufferView":0,
			"componentType":5126,
			"count":7200,
			"max":[
				4.409439563751221,
				8.234074592590332,
				6.481808185577393
			],
			"min":[
				-5.6885809898376465,
				-1.6769479513168335,
				-4.053222179412842
			],
			"type":"VEC3"
		},
		{
			"bufferView":1,
			"componentType":5126,
			"count":7200,
			"type":"VEC3"
		},
		{
			"bufferView":2,
			"componentType":5126,
			"count":7200,
			"type":"VEC2"
		},
		{
			"bufferView":3,
			"componentType":5123,
			"count":12804,
			"type":"SCALAR"
		}
	],
	"bufferViews":[
		{
			"buffer":0,
			"byteLength":86400,
			"byteOffset":0,
			"target":34962
		},
		{
			"buffer":0,
			"byteLength":86400,
			"byteOffset":86400,
			"target":34962
		},
		{
			"buffer":0,
			"byteLength":57600,
			"byteOffset":172800,
			"target":34962
		},
		{
			"buffer":0,
			"byteLength":25608,
			"byteOffset":230400,
			"target":34963
		}
	],
	"buffers":[
		{
			"byteLength":256008,
			"uri":"GodCloud.bin"
		}
	]
}
