{
	"asset":{
		"generator":"Khronos glTF Blender I/O v4.0.43",
		"version":"2.0"
	},
	"scene":0,
	"scenes":[
		{
			"name":"Scene",
			"nodes":[
				0
			]
		}
	],
	"nodes":[
		{
			"mesh":0,
			"name":"Circle",
			"scale":[
				100,
				1,
				100
			]
		}
	],
	"meshes":[
		{
			"name":"Circle.001",
			"primitives":[
				{
					"attributes":{
						"POSITION":0,
						"NORMAL":1,
						"TEXCOORD_0":2
					},
					"indices":3
				}
			]
		}
	],
	"accessors":[
		{
			"bufferView":0,
			"componentType":5126,
			"count":1223,
			"max":[
				1.1211044788360596,
				235.29010009765625,
				1.1211044788360596
			],
			"min":[
				-1.1211044788360596,
				-4.1165618896484375,
				-1.1211044788360596
			],
			"type":"VEC3"
		},
		{
			"bufferView":1,
			"componentType":5126,
			"count":1223,
			"type":"VEC3"
		},
		{
			"bufferView":2,
			"componentType":5126,
			"count":1223,
			"type":"VEC2"
		},
		{
			"bufferView":3,
			"componentType":5123,
			"count":1908,
			"type":"SCALAR"
		}
	],
	"bufferViews":[
		{
			"buffer":0,
			"byteLength":14676,
			"byteOffset":0,
			"target":34962
		},
		{
			"buffer":0,
			"byteLength":14676,
			"byteOffset":14676,
			"target":34962
		},
		{
			"buffer":0,
			"byteLength":9784,
			"byteOffset":29352,
			"target":34962
		},
		{
			"buffer":0,
			"byteLength":3816,
			"byteOffset":39136,
			"target":34963
		}
	],
	"buffers":[
		{
			"byteLength":42952,
			"uri":"Jar.bin"
		}
	]
}
