{
	"asset":{
		"generator":"Khronos glTF Blender I/O v4.1.63",
		"version":"2.0"
	},
	"scene":0,
	"scenes":[
		{
			"name":"Scene",
			"nodes":[
				0,
				9
			]
		}
	],
	"nodes":[
		{
			"name":"Empty",
			"rotation":[
				0.7071068286895752,
				0,
				0,
				0.7071068286895752
			],
			"translation":[
				-1.3272430896759033,
				-1.7000000476837158,
				0
			]
		},
		{
			"name":"Bone.004",
			"rotation":[
				0.008140120655298233,
				-3.280713700704041e-09,
				9.683693846795904e-10,
				0.9999668598175049
			],
			"scale":[
				1,
				0.9999998807907104,
				0.9999999403953552
			],
			"translation":[
				2.7755575615628914e-16,
				0.9735791087150574,
				-1.8626450382086546e-09
			]
		},
		{
			"children":[
				1
			],
			"name":"Bone.003",
			"rotation":[
				0.008629650808870792,
				4.1439292886025214e-08,
				6.972930011173162e-10,
				0.9999628067016602
			],
			"scale":[
				1,
				0.9999999403953552,
				0.9999999403953552
			],
			"translation":[
				-3.191891195797325e-16,
				0.9079036712646484,
				1.862645815364772e-09
			]
		},
		{
			"children":[
				2
			],
			"name":"Bone.002",
			"rotation":[
				-0.0003665341646410525,
				-3.422638172878578e-08,
				-2.5889179688931563e-11,
				0.9999999403953552
			],
			"translation":[
				6.491335247105212e-15,
				1.0336931943893433,
				-2.561136858147961e-09
			]
		},
		{
			"children":[
				3
			],
			"name":"Bone.001",
			"rotation":[
				-0.501321017742157,
				0.49867549538612366,
				0.501321017742157,
				0.49867552518844604
			],
			"translation":[
				-1.0172712802886963,
				0.98992520570755,
				1.3300518730829936e-07
			]
		},
		{
			"name":"Bone.006",
			"rotation":[
				-0.2584584951400757,
				0.42972880601882935,
				0.8582321405410767,
				0.1094074547290802
			],
			"scale":[
				0.9999998807907104,
				0.9999998211860657,
				0.9999998211860657
			],
			"translation":[
				-1.4383997917175293,
				0.7210228443145752,
				0.39287108182907104
			]
		},
		{
			"name":"Bone.007",
			"rotation":[
				-0.8600658774375916,
				0.11576849222183228,
				0.269498735666275,
				0.4174383282661438
			],
			"scale":[
				1,
				1.0000001192092896,
				1
			],
			"translation":[
				-1.4419375658035278,
				0.7390906810760498,
				-0.4128013849258423
			]
		},
		{
			"name":"Bone",
			"rotation":[
				-7.667098600450117e-08,
				1.4744421683587916e-08,
				-0.7035967707633972,
				0.7105994820594788
			],
			"scale":[
				1,
				1.0000001192092896,
				1
			],
			"translation":[
				-1.0172712802886963,
				0.98992520570755,
				1.3300518730829936e-07
			]
		},
		{
			"mesh":0,
			"name":"Plane",
			"skin":0
		},
		{
			"children":[
				8,
				4,
				5,
				6,
				7
			],
			"name":"Armature",
			"translation":[
				2.105642080307007,
				-0.9297639727592468,
				0
			]
		}
	],
	"meshes":[
		{
			"name":"Plane",
			"primitives":[
				{
					"attributes":{
						"POSITION":0,
						"NORMAL":1,
						"TEXCOORD_0":2,
						"JOINTS_0":3,
						"WEIGHTS_0":4
					},
					"indices":5
				}
			]
		}
	],
	"skins":[
		{
			"inverseBindMatrices":6,
			"joints":[
				4,
				3,
				2,
				1,
				5,
				6,
				7
			],
			"name":"Armature"
		}
	],
	"accessors":[
		{
			"bufferView":0,
			"componentType":5126,
			"count":1771,
			"max":[
				2.13805890083313,
				0.7847375273704529,
				1.3657288551330566
			],
			"min":[
				-3.279005765914917,
				-1.1117143630981445,
				-1.3657288551330566
			],
			"type":"VEC3"
		},
		{
			"bufferView":1,
			"componentType":5126,
			"count":1771,
			"type":"VEC3"
		},
		{
			"bufferView":2,
			"componentType":5126,
			"count":1771,
			"type":"VEC2"
		},
		{
			"bufferView":3,
			"componentType":5121,
			"count":1771,
			"type":"VEC4"
		},
		{
			"bufferView":4,
			"componentType":5126,
			"count":1771,
			"type":"VEC4"
		},
		{
			"bufferView":5,
			"componentType":5123,
			"count":3249,
			"type":"SCALAR"
		},
		{
			"bufferView":6,
			"componentType":5126,
			"count":7,
			"type":"MAT4"
		}
	],
	"bufferViews":[
		{
			"buffer":0,
			"byteLength":21252,
			"byteOffset":0,
			"target":34962
		},
		{
			"buffer":0,
			"byteLength":21252,
			"byteOffset":21252,
			"target":34962
		},
		{
			"buffer":0,
			"byteLength":14168,
			"byteOffset":42504,
			"target":34962
		},
		{
			"buffer":0,
			"byteLength":7084,
			"byteOffset":56672,
			"target":34962
		},
		{
			"buffer":0,
			"byteLength":28336,
			"byteOffset":63756,
			"target":34962
		},
		{
			"buffer":0,
			"byteLength":6498,
			"byteOffset":92092,
			"target":34963
		},
		{
			"buffer":0,
			"byteLength":448,
			"byteOffset":98592
		}
	],
	"buffers":[
		{
			"byteLength":99040,
			"uri":"SHARK.bin"
		}
	]
}
