{
	"asset":{
		"generator":"Khronos glTF Blender I/O v4.0.43",
		"version":"2.0"
	},
	"scene":0,
	"scenes":[
		{
			"name":"Scene",
			"nodes":[
				0,
				1
			]
		}
	],
	"nodes":[
		{
			"mesh":0,
			"name":"Circle",
			"scale":[
				100,
				1,
				100
			]
		},
		{
			"mesh":1,
			"name":"Plane",
			"scale":[
				80,
				80,
				80
			],
			"translation":[
				0,
				60,
				0
			]
		}
	],
	"materials":[
		{
			"doubleSided":true,
			"name":"Material.002",
			"pbrMetallicRoughness":{
				"metallicFactor":0,
				"roughnessFactor":0.5
			}
		}
	],
	"meshes":[
		{
			"name":"Circle.001",
			"primitives":[
				{
					"attributes":{
						"POSITION":0,
						"NORMAL":1,
						"TEXCOORD_0":2
					},
					"indices":3
				}
			]
		},
		{
			"name":"Plane.002",
			"primitives":[
				{
					"attributes":{
						"POSITION":4,
						"NORMAL":5,
						"TEXCOORD_0":6
					},
					"indices":7,
					"material":0
				}
			]
		}
	],
	"accessors":[
		{
			"bufferView":0,
			"componentType":5126,
			"count":1223,
			"max":[
				1.1211044788360596,
				235.29010009765625,
				1.1211044788360596
			],
			"min":[
				-1.1211044788360596,
				-4.1165618896484375,
				-1.1211044788360596
			],
			"type":"VEC3"
		},
		{
			"bufferView":1,
			"componentType":5126,
			"count":1223,
			"type":"VEC3"
		},
		{
			"bufferView":2,
			"componentType":5126,
			"count":1223,
			"type":"VEC2"
		},
		{
			"bufferView":3,
			"componentType":5123,
			"count":1908,
			"type":"SCALAR"
		},
		{
			"bufferView":4,
			"componentType":5126,
			"count":42152,
			"max":[
				1.2440797090530396,
				0.2826100289821625,
				1.2485723495483398
			],
			"min":[
				-1.2390750646591187,
				-0.7379566431045532,
				-1.234575629234314
			],
			"type":"VEC3"
		},
		{
			"bufferView":5,
			"componentType":5126,
			"count":42152,
			"type":"VEC3"
		},
		{
			"bufferView":6,
			"componentType":5126,
			"count":42152,
			"type":"VEC2"
		},
		{
			"bufferView":7,
			"componentType":5123,
			"count":98028,
			"type":"SCALAR"
		}
	],
	"bufferViews":[
		{
			"buffer":0,
			"byteLength":14676,
			"byteOffset":0,
			"target":34962
		},
		{
			"buffer":0,
			"byteLength":14676,
			"byteOffset":14676,
			"target":34962
		},
		{
			"buffer":0,
			"byteLength":9784,
			"byteOffset":29352,
			"target":34962
		},
		{
			"buffer":0,
			"byteLength":3816,
			"byteOffset":39136,
			"target":34963
		},
		{
			"buffer":0,
			"byteLength":505824,
			"byteOffset":42952,
			"target":34962
		},
		{
			"buffer":0,
			"byteLength":505824,
			"byteOffset":548776,
			"target":34962
		},
		{
			"buffer":0,
			"byteLength":337216,
			"byteOffset":1054600,
			"target":34962
		},
		{
			"buffer":0,
			"byteLength":196056,
			"byteOffset":1391816,
			"target":34963
		}
	],
	"buffers":[
		{
			"byteLength":1587872,
			"uri":"terrain%2BJar.bin"
		}
	]
}
