{
	"asset":{
		"generator":"Khronos glTF Blender I/O v4.0.43",
		"version":"2.0"
	},
	"scene":0,
	"scenes":[
		{
			"name":"Scene",
			"nodes":[
				0
			]
		}
	],
	"nodes":[
		{
			"mesh":0,
			"name":"Plane",
			"scale":[
				80,
				80,
				80
			],
			"translation":[
				0,
				60,
				0
			]
		}
	],
	"materials":[
		{
			"doubleSided":true,
			"name":"Material.002",
			"pbrMetallicRoughness":{
				"metallicFactor":0,
				"roughnessFactor":0.5
			}
		}
	],
	"meshes":[
		{
			"name":"Plane.002",
			"primitives":[
				{
					"attributes":{
						"POSITION":0,
						"NORMAL":1,
						"TEXCOORD_0":2
					},
					"indices":3,
					"material":0
				}
			]
		}
	],
	"accessors":[
		{
			"bufferView":0,
			"componentType":5126,
			"count":42152,
			"max":[
				1.2440797090530396,
				0.2826100289821625,
				1.2485723495483398
			],
			"min":[
				-1.2390750646591187,
				-0.7379566431045532,
				-1.234575629234314
			],
			"type":"VEC3"
		},
		{
			"bufferView":1,
			"componentType":5126,
			"count":42152,
			"type":"VEC3"
		},
		{
			"bufferView":2,
			"componentType":5126,
			"count":42152,
			"type":"VEC2"
		},
		{
			"bufferView":3,
			"componentType":5123,
			"count":98028,
			"type":"SCALAR"
		}
	],
	"bufferViews":[
		{
			"buffer":0,
			"byteLength":505824,
			"byteOffset":0,
			"target":34962
		},
		{
			"buffer":0,
			"byteLength":505824,
			"byteOffset":505824,
			"target":34962
		},
		{
			"buffer":0,
			"byteLength":337216,
			"byteOffset":1011648,
			"target":34962
		},
		{
			"buffer":0,
			"byteLength":196056,
			"byteOffset":1348864,
			"target":34963
		}
	],
	"buffers":[
		{
			"byteLength":1544920,
			"uri":"terrain.bin"
		}
	]
}
