{
	"asset":{
		"generator":"Khronos glTF Blender I/O v4.0.43",
		"version":"2.0"
	},
	"scene":0,
	"scenes":[
		{
			"name":"Scene",
			"nodes":[
				0
			]
		}
	],
	"nodes":[
		{
			"mesh":0,
			"name":"Plane",
			"scale":[
				80,
				80,
				80
			],
			"translation":[
				0,
				60,
				0
			]
		}
	],
	"materials":[
		{
			"doubleSided":true,
			"name":"Material.002",
			"pbrMetallicRoughness":{
				"baseColorTexture":{
					"index":0
				},
				"metallicFactor":0,
				"roughnessFactor":0.5
			}
		}
	],
	"meshes":[
		{
			"name":"Plane.002",
			"primitives":[
				{
					"attributes":{
						"POSITION":0,
						"NORMAL":1,
						"TEXCOORD_0":2
					},
					"indices":3,
					"material":0
				}
			]
		}
	],
	"textures":[
		{
			"sampler":0,
			"source":0
		}
	],
	"images":[
		{
			"mimeType":"image/png",
			"name":"pixil-frame-0 (1)",
			"uri":"pixil-frame-0%201.png"
		}
	],
	"accessors":[
		{
			"bufferView":0,
			"componentType":5126,
			"count":50964,
			"max":[
				1.9015446901321411,
				0.2826100289821625,
				1.9068275690078735
			],
			"min":[
				-1.8934661149978638,
				-1.6839267015457153,
				-1.8881723880767822
			],
			"type":"VEC3"
		},
		{
			"bufferView":1,
			"componentType":5126,
			"count":50964,
			"type":"VEC3"
		},
		{
			"bufferView":2,
			"componentType":5126,
			"count":50964,
			"type":"VEC2"
		},
		{
			"bufferView":3,
			"componentType":5123,
			"count":109908,
			"type":"SCALAR"
		}
	],
	"bufferViews":[
		{
			"buffer":0,
			"byteLength":611568,
			"byteOffset":0,
			"target":34962
		},
		{
			"buffer":0,
			"byteLength":611568,
			"byteOffset":611568,
			"target":34962
		},
		{
			"buffer":0,
			"byteLength":407712,
			"byteOffset":1223136,
			"target":34962
		},
		{
			"buffer":0,
			"byteLength":219816,
			"byteOffset":1630848,
			"target":34963
		}
	],
	"samplers":[
		{
			"magFilter":9729,
			"minFilter":9987
		}
	],
	"buffers":[
		{
			"byteLength":1850664,
			"uri":"terrain.bin"
		}
	]
}
