{
    "asset": {
        "generator": "COLLADA2GLTF",
        "version": "2.0"
    },
    "scenes": [
        {
            "nodes": [
                0
            ]
        }
    ],
    "scene": 0,
    "nodes": [
        {
            "children": [
                2,
                1
            ],
            "name": "Y_UP"
        },
        {
            "matrix": [
                1.0,
                0.0,
                0.0,
                0.0,
                0.0,
                0.9961947202682496,
                -0.08715574443340302,
                0.0,
                0.0,
                0.08715574443340302,
                0.9961947202682496,
                0.0,
                0.0,
                0.000750000006519258,
                0.004000000189989805,
                1.0
            ],
            "camera": 0,
            "name": "Camera"
        },
        {
            "mesh": 0,
            "name": "Tree_lp_11"
        }
    ],
    "cameras": [
        {
            "perspective": {
                "aspectRatio": 1.4670469760894776,
                "yfov": 0.4710901379585266,
                "zfar": 10.0,
                "znear": 0.000010000000656873454
            },
            "type": "perspective",
            "name": "Camera"
        }
    ],
    "meshes": [
        {
            "primitives": [
                {
                    "attributes": {
                        "NORMAL": 1,
                        "POSITION": 2
                    },
                    "indices": 0,
                    "mode": 4,
                    "material": 0
                },
                {
                    "attributes": {
                        "NORMAL": 4,
                        "POSITION": 5
                    },
                    "indices": 3,
                    "mode": 4,
                    "material": 1
                }
            ],
            "name": "Tree_lp_11"
        }
    ],
    "accessors": [
        {
            "bufferView": 0,
            "byteOffset": 0,
            "componentType": 5123,
            "count": 1704,
            "max": [
                763
            ],
            "min": [
                0
            ],
            "type": "SCALAR"
        },
        {
            "bufferView": 1,
            "byteOffset": 0,
            "componentType": 5126,
            "count": 764,
            "max": [
                0.9846659898757936,
                0.999779999256134,
                0.9951090216636658
            ],
            "min": [
                -0.9753339886665344,
                -0.994522988796234,
                -0.9975759983062744
            ],
            "type": "VEC3"
        },
        {
            "bufferView": 1,
            "byteOffset": 9168,
            "componentType": 5126,
            "count": 764,
            "max": [
                0.00925973989069462,
                0.017549600452184678,
                0.005698600318282843
            ],
            "min": [
                -0.00895731057971716,
                -0.0007426330121234059,
                -0.01041760016232729
            ],
            "type": "VEC3"
        },
        {
            "bufferView": 0,
            "byteOffset": 3408,
            "componentType": 5123,
            "count": 360,
            "max": [
                359
            ],
            "min": [
                0
            ],
            "type": "SCALAR"
        },
        {
            "bufferView": 1,
            "byteOffset": 18336,
            "componentType": 5126,
            "count": 360,
            "max": [
                0.9856770038604736,
                0.9966030120849608,
                0.9832279682159424
            ],
            "min": [
                -0.9856770038604736,
                -0.9966030120849608,
                -0.9832279682159424
            ],
            "type": "VEC3"
        },
        {
            "bufferView": 1,
            "byteOffset": 22656,
            "componentType": 5126,
            "count": 360,
            "max": [
                0.013919200748205184,
                0.02579909935593605,
                0.007329720538109541
            ],
            "min": [
                -0.014061899855732918,
                0.008734770119190216,
                -0.013472001999616625
            ],
            "type": "VEC3"
        }
    ],
    "materials": [
        {
            "pbrMetallicRoughness": {
                "baseColorFactor": [
                    0.20759500563144685,
                    0.1385129988193512,
                    0.055181000381708148,
                    1.0
                ],
                "metallicFactor": 0.0
            },
            "name": "Bark"
        },
        {
            "pbrMetallicRoughness": {
                "baseColorFactor": [
                    0.2568610012531281,
                    0.4405060112476349,
                    0.11076899617910384,
                    1.0
                ],
                "metallicFactor": 0.0
            },
            "name": "Tree"
        }
    ],
    "bufferViews": [
        {
            "buffer": 0,
            "byteOffset": 26976,
            "byteLength": 4128,
            "target": 34963
        },
        {
            "buffer": 0,
            "byteOffset": 0,
            "byteLength": 26976,
            "byteStride": 12,
            "target": 34962
        }
    ],
    "buffers": [
        {
            "byteLength": 31104,
            "uri": "data:application/octet-stream;base64,"
        }
    ]
}
